<svg width="675" height="675" viewBox="0 0 675 675" fill="none" xmlns="http://www.w3.org/2000/svg">
<path fill-rule="evenodd" clip-rule="evenodd" d="M664.851 205.326L622.302 185.989C683.462 298.852 666.804 443.637 576.571 544.276C514.543 613.402 424.768 650.725 333.498 650.725C287.31 650.783 241.626 641.123 199.414 622.371L209.395 600.719C328.966 654.004 472.5 624.348 558.466 528.532C643.203 434.017 658.004 297.478 598.508 192.571L591.155 243.759L567.217 240.431L579.174 157.056C579.449 155.211 580.153 153.456 581.229 151.931C582.305 150.407 583.723 149.157 585.37 148.28C587.03 147.393 588.871 146.9 590.752 146.837C592.633 146.774 594.503 147.144 596.218 147.918L675 183.747L664.851 205.326ZM117.522 145.893C32.4723 240.769 18.1527 358.406 76.8536 459.647L83.7 407.037L107.687 410.051L96.5973 495.283C96.3507 497.162 95.6572 498.955 94.5751 500.512C93.4929 502.068 92.0536 503.342 90.3777 504.228C88.6892 505.128 86.8136 505.621 84.9007 505.667C82.9878 505.713 81.0906 505.311 79.3607 504.493L0 466.832L10.4866 445.422L52.433 465.313C-7.59374 356.429 8.72679 231.269 99.3938 130.173C192.134 26.7853 346.854 -5.28206 475.393 52.0535L465.413 73.705C346.299 20.5647 203.271 50.3175 117.498 145.893H117.522Z" fill="#414143"/>
<path fill-rule="evenodd" clip-rule="evenodd" d="M664.851 205.326L622.302 185.989C683.462 298.852 666.804 443.637 576.571 544.276C514.543 613.402 424.768 650.725 333.498 650.725C287.31 650.783 241.626 641.123 199.414 622.371L209.395 600.719C328.966 654.004 472.5 624.348 558.466 528.532C643.203 434.017 658.004 297.478 598.508 192.571L591.155 243.759L567.217 240.431L579.174 157.056C579.449 155.211 580.153 153.456 581.229 151.931C582.305 150.407 583.723 149.157 585.37 148.28C587.03 147.393 588.871 146.9 590.752 146.837C592.633 146.774 594.503 147.144 596.218 147.918L675 183.747L664.851 205.326ZM117.522 145.893C32.4723 240.769 18.1527 358.406 76.8536 459.647L83.7 407.037L107.687 410.051L96.5973 495.283C96.3507 497.162 95.6572 498.955 94.5751 500.512C93.4929 502.068 92.0536 503.342 90.3777 504.228C88.6892 505.128 86.8136 505.621 84.9007 505.667C82.9878 505.713 81.0906 505.311 79.3607 504.493L0 466.832L10.4866 445.422L52.433 465.313C-7.59374 356.429 8.72679 231.269 99.3938 130.173C192.134 26.7853 346.854 -5.28206 475.393 52.0535L465.413 73.705C346.299 20.5647 203.271 50.3175 117.498 145.893H117.522Z" fill="url(#paint0_linear_101_3)"/>
<path fill-rule="evenodd" clip-rule="evenodd" d="M475.786 459.847L288.262 515.309C282.533 517.005 277.042 512.05 278.246 506.272L345.238 185.44C346.49 179.444 354.784 178.491 357.4 184.047L481.439 447.446C483.779 452.415 481.11 458.274 475.786 459.847ZM507.944 446.764L364.323 141.782V141.775C362.539 138.02 359.771 134.817 356.314 132.507C352.857 130.197 348.839 128.865 344.686 128.653C335.946 128.144 328.116 132.36 323.699 139.534L167.935 391.821C165.569 395.632 164.338 400.039 164.386 404.524C164.435 409.01 165.761 413.389 168.209 417.148L244.349 535.093C248.887 542.133 256.749 546.208 264.922 546.208C267.238 546.208 269.568 545.882 271.858 545.203L492.871 479.836C496.198 478.861 499.277 477.184 501.9 474.917C504.523 472.649 506.628 469.846 508.074 466.695C509.502 463.562 510.229 460.156 510.207 456.714C510.184 453.271 509.412 449.875 507.944 446.761V446.764Z" fill="#0C344B"/>
<path fill-rule="evenodd" clip-rule="evenodd" d="M475.786 459.847L288.262 515.309C282.533 517.005 277.042 512.05 278.246 506.272L345.238 185.44C346.49 179.444 354.784 178.491 357.4 184.047L481.439 447.446C483.779 452.415 481.11 458.274 475.786 459.847ZM507.944 446.764L364.323 141.782V141.775C362.539 138.02 359.771 134.817 356.314 132.507C352.857 130.197 348.839 128.865 344.686 128.653C335.946 128.144 328.116 132.36 323.699 139.534L167.935 391.821C165.569 395.632 164.338 400.039 164.386 404.524C164.435 409.01 165.761 413.389 168.209 417.148L244.349 535.093C248.887 542.133 256.749 546.208 264.922 546.208C267.238 546.208 269.568 545.882 271.858 545.203L492.871 479.836C496.198 478.861 499.277 477.184 501.9 474.917C504.523 472.649 506.628 469.846 508.074 466.695C509.502 463.562 510.229 460.156 510.207 456.714C510.184 453.271 509.412 449.875 507.944 446.761V446.764Z" fill="#5379F4"/>
<defs>
<linearGradient id="paint0_linear_101_3" x1="42.3738" y1="289.377" x2="644.125" y2="289.377" gradientUnits="userSpaceOnUse">
<stop stop-color="#EF6444"/>
<stop offset="1" stop-color="#F59831"/>
</linearGradient>
</defs>
</svg>
